# xmcd CD database file
#
# Track frame offsets:
#	150
#	23230
#	46447
#	57664
#	81467
#	105707
#	126099
#	144573
#	174921
#	194954
#	219135
#	235083
#	264526
#	291665
#	313097
#
# Disc length: 4572 seconds
#
# Revision: 0
# Processed by: cddbd v1.5.1PL2 Copyright (c) Steve Scherf et al.
# Submitted via: CDex 1.51
#
DISCID=eb11da0f
DTITLE=Various Artist - Panda 2.1
DYEAR=1900
DGENRE=Jazz
TTITLE0=You Stepped Out of a Dream - Waldron
TTITLE1=Who can I Turn To - Gordon
TTITLE2=That Old Feeling - Byas
TTITLE3=There is No Greater Love - Rollins
TTITLE4=Tangerine - Webster/Hawkins
TTITLE5=Someone to Watch Over Me -Webster
TTITLE6=Long Ago and Far Away- Lucky Thompson
TTITLE7=I've Got a Feeling I'm Falling -Gene Harris
TTITLE8=In a Mellow Tone -  Webster
TTITLE9=AsTime Goes By - Lucky Thompson
TTITLE10=Too Young - Don Byas
TTITLE11=Autumn In New York - Gordon
TTITLE12=Moonglow - Hawkins
TTITLE13=Where Are You - Webster
TTITLE14=Back in The Day - Turre/Carter
EXTD=
EXTT0=
EXTT1=
EXTT2=
EXTT3=
EXTT4=
EXTT5=
EXTT6=
EXTT7=
EXTT8=
EXTT9=
EXTT10=
EXTT11=
EXTT12=
EXTT13=
EXTT14=
PLAYORDER=
